G04 MADE WITH FRITZING*
G04 WWW.FRITZING.ORG*
G04 DOUBLE SIDED*
G04 HOLES PLATED*
G04 CONTOUR ON CENTER OF CONTOUR VECTOR*
%ASAXBY*%
%FSLAX23Y23*%
%MOIN*%
%OFA0B0*%
%SFA1.0B1.0*%
%ADD10C,0.087778*%
%ADD11C,0.088000*%
%ADD12C,0.085000*%
%ADD13R,0.088000X0.088000*%
%ADD14R,0.001000X0.001000*%
%LNMASK0*%
G90*
G70*
G54D10*
X55Y1070D03*
X55Y970D03*
X55Y870D03*
X55Y770D03*
X55Y670D03*
X55Y570D03*
X55Y470D03*
X55Y370D03*
X955Y370D03*
X955Y470D03*
X955Y570D03*
X955Y670D03*
X955Y770D03*
X955Y870D03*
X955Y970D03*
X955Y1070D03*
G54D11*
X379Y456D03*
X279Y456D03*
X179Y456D03*
X379Y889D03*
X279Y889D03*
X179Y889D03*
X507Y565D03*
X607Y565D03*
X707Y565D03*
X586Y899D03*
X686Y899D03*
X786Y899D03*
X586Y781D03*
X686Y781D03*
X786Y781D03*
X379Y781D03*
X279Y781D03*
X179Y781D03*
X379Y673D03*
X279Y673D03*
X179Y673D03*
X379Y565D03*
X279Y565D03*
X179Y565D03*
X507Y456D03*
X607Y456D03*
X707Y456D03*
X763Y191D03*
X663Y191D03*
G54D12*
X507Y358D03*
X881Y456D03*
G54D13*
X379Y456D03*
X379Y889D03*
X507Y565D03*
X586Y899D03*
X586Y781D03*
X379Y781D03*
X379Y673D03*
X379Y565D03*
X507Y456D03*
G54D14*
X277Y231D02*
X281Y231D01*
X377Y231D02*
X381Y231D01*
X270Y230D02*
X287Y230D01*
X370Y230D02*
X387Y230D01*
X267Y229D02*
X291Y229D01*
X367Y229D02*
X391Y229D01*
X264Y228D02*
X294Y228D01*
X364Y228D02*
X394Y228D01*
X262Y227D02*
X296Y227D01*
X362Y227D02*
X396Y227D01*
X260Y226D02*
X298Y226D01*
X360Y226D02*
X398Y226D01*
X258Y225D02*
X299Y225D01*
X358Y225D02*
X399Y225D01*
X257Y224D02*
X301Y224D01*
X357Y224D02*
X401Y224D01*
X255Y223D02*
X302Y223D01*
X355Y223D02*
X402Y223D01*
X254Y222D02*
X304Y222D01*
X354Y222D02*
X404Y222D01*
X253Y221D02*
X305Y221D01*
X353Y221D02*
X405Y221D01*
X252Y220D02*
X306Y220D01*
X352Y220D02*
X406Y220D01*
X251Y219D02*
X307Y219D01*
X351Y219D02*
X407Y219D01*
X250Y218D02*
X308Y218D01*
X350Y218D02*
X408Y218D01*
X249Y217D02*
X309Y217D01*
X349Y217D02*
X409Y217D01*
X248Y216D02*
X310Y216D01*
X348Y216D02*
X410Y216D01*
X247Y215D02*
X310Y215D01*
X347Y215D02*
X410Y215D01*
X247Y214D02*
X311Y214D01*
X347Y214D02*
X411Y214D01*
X246Y213D02*
X312Y213D01*
X346Y213D02*
X412Y213D01*
X245Y212D02*
X312Y212D01*
X345Y212D02*
X412Y212D01*
X245Y211D02*
X313Y211D01*
X345Y211D02*
X413Y211D01*
X244Y210D02*
X314Y210D01*
X344Y210D02*
X414Y210D01*
X244Y209D02*
X314Y209D01*
X344Y209D02*
X414Y209D01*
X243Y208D02*
X315Y208D01*
X343Y208D02*
X415Y208D01*
X243Y207D02*
X315Y207D01*
X343Y207D02*
X415Y207D01*
X242Y206D02*
X315Y206D01*
X342Y206D02*
X415Y206D01*
X242Y205D02*
X316Y205D01*
X342Y205D02*
X416Y205D01*
X242Y204D02*
X316Y204D01*
X342Y204D02*
X416Y204D01*
X241Y203D02*
X317Y203D01*
X341Y203D02*
X416Y203D01*
X241Y202D02*
X317Y202D01*
X341Y202D02*
X417Y202D01*
X241Y201D02*
X317Y201D01*
X341Y201D02*
X417Y201D01*
X240Y200D02*
X317Y200D01*
X340Y200D02*
X417Y200D01*
X240Y199D02*
X317Y199D01*
X340Y199D02*
X417Y199D01*
X240Y198D02*
X318Y198D01*
X340Y198D02*
X418Y198D01*
X240Y197D02*
X318Y197D01*
X340Y197D02*
X418Y197D01*
X240Y196D02*
X318Y196D01*
X340Y196D02*
X418Y196D01*
X240Y195D02*
X318Y195D01*
X340Y195D02*
X418Y195D01*
X240Y194D02*
X318Y194D01*
X340Y194D02*
X418Y194D01*
X239Y193D02*
X318Y193D01*
X339Y193D02*
X418Y193D01*
X239Y192D02*
X318Y192D01*
X339Y192D02*
X418Y192D01*
X239Y191D02*
X318Y191D01*
X339Y191D02*
X418Y191D01*
X239Y190D02*
X318Y190D01*
X339Y190D02*
X418Y190D01*
X240Y189D02*
X318Y189D01*
X339Y189D02*
X418Y189D01*
X240Y188D02*
X318Y188D01*
X340Y188D02*
X418Y188D01*
X240Y187D02*
X318Y187D01*
X340Y187D02*
X418Y187D01*
X240Y186D02*
X318Y186D01*
X340Y186D02*
X418Y186D01*
X240Y185D02*
X318Y185D01*
X340Y185D02*
X418Y185D01*
X240Y184D02*
X318Y184D01*
X340Y184D02*
X418Y184D01*
X240Y183D02*
X317Y183D01*
X340Y183D02*
X417Y183D01*
X241Y182D02*
X317Y182D01*
X341Y182D02*
X417Y182D01*
X241Y181D02*
X317Y181D01*
X341Y181D02*
X417Y181D01*
X241Y180D02*
X317Y180D01*
X341Y180D02*
X417Y180D01*
X241Y179D02*
X316Y179D01*
X341Y179D02*
X416Y179D01*
X242Y178D02*
X316Y178D01*
X342Y178D02*
X416Y178D01*
X242Y177D02*
X316Y177D01*
X342Y177D02*
X416Y177D01*
X242Y176D02*
X315Y176D01*
X342Y176D02*
X415Y176D01*
X243Y175D02*
X315Y175D01*
X343Y175D02*
X415Y175D01*
X243Y174D02*
X314Y174D01*
X343Y174D02*
X414Y174D01*
X244Y173D02*
X314Y173D01*
X344Y173D02*
X414Y173D01*
X244Y172D02*
X313Y172D01*
X344Y172D02*
X413Y172D01*
X245Y171D02*
X313Y171D01*
X345Y171D02*
X413Y171D01*
X246Y170D02*
X312Y170D01*
X345Y170D02*
X412Y170D01*
X246Y169D02*
X312Y169D01*
X346Y169D02*
X412Y169D01*
X247Y168D02*
X311Y168D01*
X347Y168D02*
X411Y168D01*
X248Y167D02*
X310Y167D01*
X348Y167D02*
X410Y167D01*
X248Y166D02*
X309Y166D01*
X348Y166D02*
X409Y166D01*
X249Y165D02*
X309Y165D01*
X349Y165D02*
X409Y165D01*
X250Y164D02*
X308Y164D01*
X350Y164D02*
X408Y164D01*
X251Y163D02*
X307Y163D01*
X351Y163D02*
X407Y163D01*
X252Y162D02*
X306Y162D01*
X352Y162D02*
X406Y162D01*
X253Y161D02*
X305Y161D01*
X353Y161D02*
X405Y161D01*
X254Y160D02*
X303Y160D01*
X354Y160D02*
X403Y160D01*
X256Y159D02*
X302Y159D01*
X356Y159D02*
X402Y159D01*
X257Y158D02*
X301Y158D01*
X357Y158D02*
X401Y158D01*
X259Y157D02*
X299Y157D01*
X359Y157D02*
X399Y157D01*
X260Y156D02*
X297Y156D01*
X360Y156D02*
X397Y156D01*
X262Y155D02*
X295Y155D01*
X362Y155D02*
X395Y155D01*
X265Y154D02*
X293Y154D01*
X365Y154D02*
X393Y154D01*
X267Y153D02*
X290Y153D01*
X367Y153D02*
X390Y153D01*
X271Y152D02*
X286Y152D01*
X371Y152D02*
X386Y152D01*
D02*
G04 End of Mask0*
M02*