; NON-PLATED HOLES START AT T1
; THROUGH (PLATED) HOLES START AT T100
M48
INCH
T100C0.030000
T101C0.036111
T102C0.035000
T103C0.038000
%
T100
X003794Y001906
X002794Y001906
T101
X009546Y007697
X000546Y008697
X009546Y008697
X000546Y009697
X000546Y003697
X009546Y009697
X009546Y003697
X000546Y004697
X009546Y004697
X000546Y005697
X009546Y005697
X000546Y006697
X009546Y006697
X000546Y010697
X009546Y010697
X000546Y007697
T102
X008814Y004563
X005074Y003579
T103
X007074Y005646
X007861Y007811
X006861Y007811
X005074Y005646
X002794Y008894
X002794Y004563
X005861Y008992
X001794Y008894
X001794Y004563
X007633Y001906
X003794Y007811
X002794Y005646
X006074Y004563
X001794Y005646
X002794Y006729
X006074Y005646
X001794Y006729
X005861Y007811
X007861Y008992
X003794Y008894
X003794Y004563
X006861Y008992
X003794Y005646
X007074Y004563
X006633Y001906
X002794Y007811
X001794Y007811
X005074Y004563
X003794Y006729
T00
M30
