G04 MADE WITH FRITZING*
G04 WWW.FRITZING.ORG*
G04 DOUBLE SIDED*
G04 HOLES PLATED*
G04 CONTOUR ON CENTER OF CONTOUR VECTOR*
%ASAXBY*%
%FSLAX23Y23*%
%MOIN*%
%OFA0B0*%
%SFA1.0B1.0*%
%ADD10C,0.077778*%
%ADD11C,0.078000*%
%ADD12C,0.075000*%
%ADD13R,0.078000X0.078000*%
%LNCOPPER1*%
G90*
G70*
G54D10*
X55Y1070D03*
X55Y970D03*
X55Y870D03*
X55Y770D03*
X55Y670D03*
X55Y570D03*
X55Y470D03*
X55Y370D03*
X955Y370D03*
X955Y470D03*
X955Y570D03*
X955Y670D03*
X955Y770D03*
X955Y870D03*
X955Y970D03*
X955Y1070D03*
G54D11*
X586Y899D03*
X686Y899D03*
X786Y899D03*
X586Y781D03*
X686Y781D03*
X786Y781D03*
X507Y565D03*
X607Y565D03*
X707Y565D03*
X379Y456D03*
X279Y456D03*
X179Y456D03*
X379Y889D03*
X279Y889D03*
X179Y889D03*
X379Y781D03*
X279Y781D03*
X179Y781D03*
X379Y673D03*
X279Y673D03*
X179Y673D03*
X379Y565D03*
X279Y565D03*
X179Y565D03*
X507Y456D03*
X607Y456D03*
X707Y456D03*
X763Y191D03*
X663Y191D03*
G54D12*
X507Y358D03*
X881Y456D03*
G54D13*
X586Y899D03*
X586Y781D03*
X507Y565D03*
X379Y456D03*
X379Y889D03*
X379Y781D03*
X379Y673D03*
X379Y565D03*
X507Y456D03*
G04 End of Copper1*
M02*